<?xml version="1.0" encoding="UTF-8" standalone="no"?>
<!-- Created with Inkscape (http://www.inkscape.org/) -->

<svg
   version="1.1"
   id="svg1"
   width="1407"
   height="653"
   viewBox="0 0 1407 653"
   xmlns="http://www.w3.org/2000/svg"
   xmlns:svg="http://www.w3.org/2000/svg">
  <defs
     id="defs1" />
  <g
     id="g1">
    <path
       style="fill:#000000"
       d="m 304.46791,647.22911 c -47.876,-5.9822 -78.8956,-14.5664 -115,-31.8244 -34.3919,-16.4395 -64.7792,-37.8562 -90.7617,-63.9682 -39.493004,-39.6897 -67.650104,-88.0539 -82.137604,-141.0839 -8.7304,-31.9571 -12.9253,-71.5938 -10.7591,-101.6616 4.9842,-69.1827 27.7072,-129.2315 68.979201,-182.28742 11.1241,-14.30028 35.470803,-38.639336 50.817503,-50.80156 58.4418,-46.31494 128.5561,-70.97028 201.86175,-70.98365 29.1255,-0.005 50.72837,2.48141 77.5,8.92107 39.69587,9.54845 73.55944,24.20688 105.9524,45.8633 38.14965,25.505074 73.45177,62.0861 95.4678,98.92636 28.59233,47.8446 41.89078,88.7464 46.68053,143.5745 1.37977,15.7941 0.62872,49.4339 -1.50703,67.5 -2.77032,23.4339 -12.04977,57.4213 -21.84209,80 -19.43341,44.8086 -51.28546,88.0836 -87.25161,118.5422 -15.2672,12.9293 -17.91498,14.9468 -33.1151,25.2326 -16.0099,10.8338 -47.62006,26.9211 -66.8849,34.0395 -24.92697,9.2105 -53.2173,15.8803 -81.49387,19.2131 -11.32292,1.3346 -48.05998,1.8534 -56.50618,0.7981 z m -2.972,-43.0911 c 2.7346,-1.7656 5.8505,-3.7782 6.9241,-4.4723 1.0737,-0.6942 4.1516,-2.9496 6.8398,-5.0121 2.6883,-2.0625 5.2252,-3.75 5.6376,-3.75 1.9117,0 29.07055,-26.1943 29.07055,-28.0381 0,-0.594 0.51953,-0.7589 1.15451,-0.3664 0.63498,0.3924 0.89834,0.299 0.58525,-0.2076 -0.3131,-0.5066 0.71317,-2.4886 2.28058,-4.4045 l 2.84985,-3.4834 0.87432,2.3509 c 1.31225,3.5285 0.81026,23.6278 -0.89945,36.0133 -0.63382,4.5916 -0.66296,7.7179 -0.0774,8.3034 1.90372,1.9038 21.13522,-14.6626 29.79697,-25.6676 2.16445,-2.75 4.27286,-5.15 4.68536,-5.3334 0.4125,-0.1833 0.75,-1.0138 0.75,-1.8456 0,-0.8318 0.91206,-2.7931 2.02679,-4.3586 2.08069,-2.9221 5.33102,-9.6803 5.5128,-11.4624 0.0561,-0.55 1.35981,-4.825 2.89714,-9.5 1.53733,-4.675 2.99068,-9.625 3.22966,-11 1.27868,-7.3569 1.74282,-13.5643 1.73843,-23.25 -0.003,-7.4703 0.34783,-10.75 1.15118,-10.75 2.43434,0 11.51549,13.9091 13.02211,19.9453 0.21343,0.8551 1.0859,4.2547 1.93883,7.5547 0.92275,3.5701 1.43582,9.0373 1.26692,13.5 -0.16264,4.2971 0.14319,7.7135 0.71614,8 1.00554,0.5027 3.45683,-5.9218 6.04562,-15.845 2.85733,-10.9526 2.83024,-30.0482 -0.0708,-49.905 -0.26115,-1.7875 -0.65758,-4.4875 -0.88096,-6 -0.85463,-5.7867 -2.6435,-12.0375 -5.65213,-19.75 -1.71641,-4.4 -3.29021,-8.8424 -3.49732,-9.872 -0.5612,-2.7899 -9.40603,-20.5083 -12.63358,-25.3082 -1.54595,-2.2991 -2.81082,-4.6212 -2.81082,-5.1602 0,-0.539 -1.8,-3.2572 -4,-6.0404 -2.2,-2.7832 -4,-5.4457 -4,-5.9165 0,-0.4709 -3.5652,-4.494 -7.92266,-8.9401 -4.35746,-4.4462 -7.65746,-8.3492 -7.33333,-8.6733 0.32413,-0.3241 0.0179,-0.5893 -0.68041,-0.5893 -0.69836,0 -3.54127,-2.0423 -6.31758,-4.5385 -6.76049,-6.0782 -30.50464,-22.1069 -39.49968,-26.6645 -2.33952,-1.1853 -5.1332,-2.9746 -6.20819,-3.9761 -2.49902,-2.3282 -6.5344,-2.5302 -5.266,-0.2635 0.4794,0.8565 5.84563,7.044 11.92503,13.75 11.77435,12.9878 18.30282,21.0851 18.30282,22.7012 0,0.5453 0.39327,0.9914 0.87392,0.9914 0.48066,0 3.2478,3.7125 6.14919,8.25 2.90139,4.5375 6.01892,9.375 6.92784,10.75 1.64437,2.4876 2.63599,4.5122 7.34677,15 2.66113,5.9246 5.6832,15.7369 6.27176,20.3637 0.35829,2.8166 0.27838,2.7829 -4.85259,-2.0476 -2.86929,-2.7012 -7.80439,-6.8564 -10.96689,-9.2338 -3.1625,-2.3775 -5.75,-4.7186 -5.75,-5.2025 0,-0.4839 -0.61164,-0.8798 -1.35921,-0.8798 -0.74757,0 -3.33507,-1.6875 -5.75,-3.75 -4.82385,-4.1199 -13.3787,-10.25 -14.30427,-10.25 -0.32258,0 -0.58652,0.9 -0.58652,2 0,1.1 0.45,2 1,2 0.55,0 1,0.5901 1,1.3114 0,0.7213 0.9,2.2775 2,3.4582 1.1,1.1807 2,2.5781 2,3.1052 0,0.5272 0.41541,1.1085 0.92313,1.2918 0.83856,0.3028 6.78237,10.0697 9.47879,15.5756 0.60394,1.2332 1.43558,2.2457 1.84808,2.25 0.4125,0 0.75,0.7258 0.75,1.6034 0,0.8776 0.82143,2.7901 1.8254,4.25 1.86293,2.7089 4.1479,7.8537 4.28786,9.6544 0.0427,0.55 0.41937,1.225 0.83694,1.5 2.02341,1.3325 8.1835,22.6408 9.55795,33.0618 2.2868,17.3382 1.67056,41.7189 -1.0775,42.6299 -0.95694,0.3172 -7.43065,-14.8678 -7.43065,-17.4297 0,-0.5706 -1.30918,-3.9005 -2.90929,-7.3998 -1.60011,-3.4992 -3.8273,-8.3872 -4.94931,-10.8622 -1.122,-2.475 -3.40704,-6.75 -5.07786,-9.5 -1.67081,-2.75 -3.56586,-6.0125 -4.21121,-7.25 -2.10464,-4.0358 -2.85052,-2.3976 -2.95946,6.5 -0.18817,15.369 -0.61774,19.7042 -2.77851,28.0401 -1.1629,4.4863 -2.11436,9.0472 -2.11436,10.1353 0,1.0881 -1.3679,5.9375 -3.03978,10.7765 -1.67187,4.8389 -3.17855,9.6981 -3.34816,10.7981 -0.45554,2.9543 -8.76568,19.0764 -13.67071,26.522 -5.6357,8.5546 -7.4588,10.731 -18.5488,22.1443 -5.1659,5.3165 -9.3926,10.1512 -9.3926,10.7437 0,1.7588 3.2294,0.7456 8.528,-2.6756 z m 166.27963,-17.0938 c 17.22558,-8.6323 30.49331,-16.2964 33.19242,-19.1736 0.275,-0.2932 2.975,-2.2986 6,-4.4565 10.59154,-7.5556 36.95432,-31.5756 36.98879,-33.7017 0.006,-0.3802 2.26121,-3.0379 5.01121,-5.9061 5.18667,-5.4096 6.00652,-7.3025 3.56812,-8.2382 -0.78753,-0.3022 -21.72104,-0.5823 -46.51891,-0.6224 l -45.08703,-0.073 -1.01716,2.6754 c -2.27223,5.9764 -6.3117,75.3554 -4.38744,75.3554 0.30667,0 5.81917,-2.6368 12.25,-5.8594 z m -204.95153,-14.0036 c 2.0042,-1.5747 5.0982,-3.607 6.8757,-4.5163 6.5945,-3.3735 16.4921,-14.6688 22.0182,-25.1276 2.8875,-5.4649 5.25,-10.6615 5.25,-11.548 0,-0.8865 0.3092,-1.921 0.6871,-2.2988 0.7451,-0.7451 0.743,-0.7324 1.8485,-11.3963 1.0288,-9.9237 -0.9533,-9.7547 -5.8619,0.5 -5.873,12.2694 -12.7977,24.6159 -14.558,25.9562 -0.8886,0.6766 -1.2606,1.2445 -0.8267,1.262 0.4339,0.017 -0.1572,1.0443 -1.3137,2.2818 -1.1565,1.2375 -3.6579,4.5896 -5.5587,7.4491 -1.9008,2.8595 -5.4721,7.3034 -7.9363,9.8752 -2.4641,2.5718 -4.4803,5.0697 -4.4803,5.5509 0,0.4811 -0.675,0.8748 -1.5,0.8748 -1.5224,0 -2.0512,2.1154 -0.8333,3.3333 1.1821,1.1821 2.4721,0.7243 6.1894,-2.1963 z m 301.08864,-69.387 c 1.67533,-1.7875 3.04814,-3.5554 3.05068,-3.9286 0.003,-0.3732 0.58107,-1.2732 1.28561,-2 2.76939,-2.8568 5.61797,-8.7658 4.54535,-9.4288 -0.59026,-0.3648 -12.60516,-0.6482 -26.69977,-0.6297 -21.31663,0.028 -27.80364,0.3917 -38.57136,2.1634 -7.11963,1.1715 -13.15713,2.3423 -13.41666,2.6018 -1.10511,1.1051 1.82594,1.9211 21.55879,6.0018 11.44147,2.3661 22.82767,4.8237 25.30267,5.4614 8.85862,2.2825 11.55947,2.7803 15.69931,2.8937 3.52307,0.097 4.68985,-0.4084 7.24538,-3.135 z M 90.914007,480.47881 c 8.025203,-4.1513 33.927503,-20.798 35.044803,-22.5224 0.28,-0.4322 3.2374,-2.7584 6.572,-5.1693 14.8249,-10.7185 19.4371,-14.4512 19.4371,-15.7302 0,-2.347 -4.3202,-0.5938 -30.6016,12.4185 -13.8059,6.8355 -25.382103,12.4282 -25.725003,12.4282 -0.3428,0 -3.447,1.2707 -6.8983,2.8238 -3.4513,1.553 -7.8501,3.4285 -9.7751,4.1676 -4.3959,1.6878 -6,2.9018 -6,4.5412 0,1.4172 7.6417,11.4674 8.7193,11.4674 0.37,0 4.5221,-1.9912 9.2268,-4.4248 z m 460.553953,-16.5919 c 9.35,-0.5793 18.125,-1.2538 19.5,-1.4989 1.375,-0.245 5.0875,-0.5313 8.25,-0.6361 4.01974,-0.1332 5.75,-0.5905 5.75,-1.5195 0,-1.0058 -2.37015,-1.3589 -9.75,-1.4527 -25.16645,-0.3196 -33.38013,-1.9635 -46.75,-9.3562 -4.4,-2.433 -14.07302,-7.4828 -21.4956,-11.2218 -12.83625,-6.466 -13.83782,-6.7981 -20.5,-6.7981 -3.85242,0 -10.3794,0.7581 -14.5044,1.6846 -4.125,0.9265 -13.70336,2.2598 -21.28524,2.9628 -7.58189,0.7029 -14.33189,1.6214 -15,2.041 -0.90624,0.5691 -0.65972,1.7214 0.97062,4.5372 1.20196,2.0759 4.0917,7.5306 6.42164,12.1216 2.32994,4.591 4.72152,8.5222 5.31462,8.736 0.5931,0.2137 9.62836,0.7622 20.07836,1.2187 22.75857,0.9943 59.6059,0.6309 83,-0.8186 z m 65.79741,-60.5653 c 9.44955,-36.8807 11.9718,-76.2515 7.17916,-112.0627 C 616.9975,235.61381 597.37546,188.08461 564.2293,145.40359 520.28207,88.814424 458.58279,51.1826 385.58107,36.44189 c -24.51824,-4.95079 -34.4303,-5.9479 -58.11311,-5.84594 -23.99985,0.10332 -33.71965,1.03752 -55.50005,5.33421 -59.7887,11.79477 -111.3694,39.15548 -153.5079,81.42745 -37.974803,38.0951 -65.706304,87.7942 -77.903704,139.6151 -10.1639,43.1818 -10.9832,87.1336 -2.4734,132.6809 1.156,6.1875 2.4485,11.25 2.8722,11.25 0.4237,0 8.1374,-4.4392 17.1416,-9.8649 23.267501,-14.0203 34.327401,-19.4398 39.871201,-19.5375 4.886203,-0.086 7.542603,1.4161 22.171303,12.5378 11.7971,8.9689 33.76,18.9823 46.8556,21.3624 7.685,1.3968 10.8459,-5.2701 8.926,-18.8267 -1.8458,-13.0337 -12.0021,-33.2126 -37.2565,-74.0226 -5.3339,-8.6194 -8.2145,-12.4281 -8.7475,-11.5658 -0.437,0.7071 -1.3261,5.0302 -1.9758,9.6068 -0.6496,4.5766 -1.5499,8.549 -2.0006,8.8275 -2.2397,1.3842 -10.7341,-15.8162 -13.8364,-28.0175 -3.0033,-11.8119 -4.3847,-24.8653 -3.6247,-34.2495 0.7549,-9.321 0.2307,-9.8924 -5.7372,-6.2538 -1.8008,1.098 -3.6117,1.998 -4.0242,2 -3.146303,0.016 5.0045,-36.6288 12.8633,-57.831 3.7913,-10.2283 14.2129,-28.7449 22.035,-39.1507 16.4993,-21.94882 47.389,-47.62956 73.2997,-60.93896 51.4829,-26.44497 107.7123,-26.50055 145.05205,-0.14339 10.91405,7.70394 17.00524,13.94753 28.02868,28.72992 7.22431,9.68776 11.01549,13.86552 14.36246,15.82698 12.94682,7.58734 51.00902,16.71985 77.10886,18.50125 37.68542,2.5721 51.15268,5.0324 66.03282,12.0636 26.0241,12.2969 45.81253,41.5961 49.56117,73.3813 1.67028,14.1625 0.65604,36.0093 -2.11534,45.5648 -3.73237,12.8688 -10.87804,25.8521 -19.81348,36 l -3.96234,4.5 -0.64229,-4 c -1.75255,-10.9143 -8.19484,-29.9599 -12.20363,-36.0781 -1.49226,-2.2774 -1.61837,-2.2967 -4.15467,-0.6353 -2.27454,1.4899 -5.4254,1.7044 -24.15896,1.6442 -22.35996,-0.072 -32.76673,-1.234 -47.71517,-5.3293 -9.23341,-2.5295 -39.91066,-4.5967 -55.32811,-3.7283 -24.31451,1.3696 -52.5742,10.6831 -60.78275,20.0321 -3.95499,4.5045 -4.78216,8.9981 -3.4766,18.8866 1.8251,13.8239 5.52384,19.6695 23.70328,37.4617 8.568,8.3855 16.26548,15.2464 17.10549,15.2464 0.84002,0 5.44754,-2.6329 10.23894,-5.851 10.87938,-7.3068 14.43464,-9.149 17.65657,-9.149 1.4937,0 8.22404,-3.6421 16.29966,-8.8204 18.56117,-11.902 26.01256,-16.1796 28.18383,-16.1796 1.75135,0 12.12814,7.8519 24.62315,18.632 26.43447,22.8062 36.92768,31.3142 39.24846,31.8228 1.60806,0.3525 6.10766,-0.4286 11.1262,-1.9315 4.63442,-1.3878 9.26188,-2.5233 10.28324,-2.5233 3.56475,0 13.56764,5.7213 48.79053,27.9068 6.875,4.3303 12.95,7.7733 13.5,7.6512 0.55,-0.1221 2.25883,-5.1351 3.79741,-11.14 z M 356.64942,279.91951 c 5.5998,-1.1226 16.8498,-4.0859 25,-6.5849 26.56371,-8.1452 31.15736,-8.8953 53.81854,-8.7885 24.777,0.1167 58.75716,3.4499 85,8.3379 16.06544,2.9923 18.73769,3.2544 18.30991,1.7961 -0.20595,-0.7021 -3.50994,-2.8256 -7.34219,-4.719 -8.94859,-4.4211 -27.5046,-9.6852 -54.96772,-15.5936 -6.05,-1.3016 -14.15,-3.0445 -18,-3.8732 -7.02756,-1.5126 -40.25625,-6.314 -44,-6.3577 -22.95641,-0.2682 -30.71922,-0.1265 -39.5,0.7213 -10.32428,0.9969 -14.44393,1.5371 -34.61933,4.5397 -12.38429,1.8431 -11.90788,1.8462 -10.32001,-0.067 4.74433,-5.7166 24.60227,-11.5135 47.93934,-13.9943 16.91754,-1.7985 31.49878,-1.5115 56.5,1.112 12.51447,1.3132 17.50091,2.0689 36,5.4555 9.24947,1.6933 14.35144,2.2097 15.40401,1.5592 0.68316,-0.4222 0.18872,-2.9241 -1.42538,-7.2123 -1.35926,-3.6113 -2.9921,-10.4769 -3.62853,-15.2571 -1.98955,-14.9432 2.18172,-27.4785 11.35506,-34.1236 2.29543,-1.6628 5.32582,-3.2977 6.73418,-3.6331 3.78687,-0.9018 4.27701,-1.3676 3.02545,-2.8757 -1.85968,-2.2407 -11.95664,-4.7217 -30.46479,-7.4856 -17.98254,-2.6855 -25.55906,-4.1679 -41.39419,-8.0992 -23.45448,-5.8229 -37.54564,-10.8946 -46.48772,-16.7321 -17.17624,-11.21275 -42.70364,-22.42186 -55.34499,-24.30202 -17.49105,-2.60147 -40.98385,5.14386 -61.20065,20.17724 -12.4529,9.26008 -21.1872,22.44438 -25.675,38.75628 -4.6934,17.0589 -2.8036,40.8336 4.4695,56.2279 3.1843,6.7398 10.2301,15.1883 17.0311,20.4215 11.1115,8.5501 25.0496,14.5916 46.1885,20.0205 15.3242,3.9356 29.9472,4.1119 47.59491,0.5739 z m -51.48091,-66.0736 c -6.5825,-3.2893 -13.9872,-10.6437 -17.3468,-17.2289 -2.5669,-5.0316 -3.4811,-15.9299 -1.8919,-22.5543 1.2526,-5.2217 5.8978,-12.2316 11.4662,-17.3035 4.3022,-3.9187 9.9813,-6.4068 17.6168,-7.7185 15.76024,-2.70722 29.64645,6.2433 36.24619,23.3629 4.31126,11.1833 -0.14432,26.7528 -10.21817,35.706 -7.18605,6.3867 -13.20594,8.7727 -22.16312,8.7842 -6.4762,0.01 -8.4884,-0.439 -13.7092,-3.0479 z m 21.07678,-10.0025 c 7.80342,-2.167 14.12713,-10.0576 15.22321,-18.9953 0.8405,-6.8537 -0.53658,-12.3137 -4.47787,-17.7545 -3.94811,-5.4502 -7.93841,-7.39 -15.20182,-7.39 -11.2312,0 -22.0934,8.0709 -24.9025,18.5034 -2.9094,10.8046 4.5424,21.9751 16.874,25.2944 5.9277,1.5956 7.7875,1.6465 12.48498,0.342 z m -13.04028,-11.9367 c -1.7946,-1.0942 -4.008,-3.5519 -4.9186,-5.4616 -1.4153,-2.9679 -1.4751,-4.0752 -0.4118,-7.6245 2.3982,-8.0043 9.1626,-11.5391 15.783,-8.2474 4.97964,2.4759 7.58308,6.2924 7.58308,11.1164 0,10.0753 -9.46958,15.4398 -18.03568,10.2171 z m 859.01819,367.4889 c -12.8835,-2.9496 -27.0862,-10.3626 -36.1026,-18.8435 -4.3395,-4.0817 -11.19,-13.7077 -14.6317,-20.5596 -9.5911,-19.0946 -10.4008,-51.3805 -1.8256,-72.8009 11.0201,-27.5278 37.9183,-44.3777 70.6426,-44.2531 13.301,0.051 23.2821,2.1259 33.1147,6.8851 21.9185,10.6092 34.8187,32.4436 36.8257,62.33 l 0.3861,5.75 h -49.3322 c -38.8062,0 -49.3295,0.2667 -49.3192,1.25 0.051,4.8728 4.4329,20.9674 7.3717,27.0773 8.4071,17.4792 21.8799,25.695 42.0753,25.6579 13.6286,-0.025 24.8599,-3.6199 39.1759,-12.5393 3.9248,-2.4452 7.4369,-4.4459 7.8045,-4.4459 0.3677,0 -0.9294,3.0375 -2.8825,6.75 -9.1789,17.4476 -23.2256,29.4134 -42.058,35.8276 -6.8525,2.3338 -9.9364,2.7691 -21.5,3.0343 -9.1566,0.2101 -15.5091,-0.1503 -19.7447,-1.1199 z m 19.2255,-93.5648 c 13.7395,-2.2306 25.0598,-4.1392 25.1563,-4.2414 0.097,-0.1022 -0.2353,-4.2358 -0.7374,-9.1858 -2.457,-24.2227 -11.5629,-37.5 -25.7184,-37.5 -16.1011,0 -25.7515,14.183 -28.3681,41.6923 -1.2106,12.7271 -0.8838,14.5977 2.4148,13.8236 1.2496,-0.2932 13.5134,-2.3582 27.2528,-4.5887 z m 130.0192,93.1689 c -12.0655,-2.2277 -19.3966,-4.1791 -30,-7.9853 l -8,-2.8717 -0.2699,-21.1196 c -0.1484,-11.6157 0.085,-21.1195 0.5179,-21.1195 0.4332,0 5.5047,4.7675 11.2699,10.5944 26.8079,27.0952 43.6341,35.3194 60.8718,29.7522 12.3243,-3.9803 17.2626,-16.5536 10.5345,-26.822 -3.1532,-4.8124 -12.4566,-9.9114 -30.0793,-16.4856 -27.1893,-10.1433 -39.9703,-17.5635 -48.2127,-27.9911 -13.2422,-16.7526 -11.5803,-40.7316 3.8427,-55.4425 10.8485,-10.3478 25.0759,-15.3819 46.1217,-16.3193 17.4298,-0.7764 37.4013,2.4385 54.2043,8.7253 l 5.6991,2.1323 -0.022,20.6781 -0.022,20.6782 -10.2276,-10.6683 c -12.7739,-13.3242 -20.6105,-19.6762 -30.0007,-24.317 -14.8305,-7.3297 -28.0287,-7.0304 -36.2101,0.8211 -5.3987,5.181 -6.5326,9.7157 -4.053,16.2085 3.1856,8.3415 9.8214,12.2927 36.0861,21.4869 21.923,7.6743 31.7387,13.1339 40.2869,22.4076 12.393,13.4447 14.6936,34.7406 5.6756,52.5368 -5.4391,10.7335 -18.9231,20.5018 -34.0124,24.6397 -9.2442,2.535 -31.5538,2.7788 -44,0.4808 z m -631.11647,-2.8461 c 6.57367,-22.1978 7.60871,-32.301 7.60661,-74.25 -0.002,-42.5309 -1.08263,-53.2201 -7.60661,-75.25 -0.48424,-1.6352 1.1923,-1.75 25.54914,-1.75 h 26.06739 l 0.0111,12.75 0.0111,12.75 2.66501,-3.5 c 7.1508,-9.3913 18.77311,-18.0654 28.81281,-21.5039 6.55403,-2.2447 20.52737,-3.0493 27.56499,-1.5873 13.61921,2.8294 25.12679,11.4764 30.68509,23.0573 l 2.8475,5.9329 5.28103,-6.9247 c 11.16368,-14.6385 27.23084,-22.9743 44.28225,-22.9743 18.8746,0 34.16935,8.6583 41.29816,23.3788 5.42248,11.1971 5.72354,13.9647 6.53994,60.1212 0.7967,45.0422 1.16342,48.8383 6.43202,66.5795 l 1.4612,4.9205 h -29.9461 c -18.01062,0 -29.9461,-0.3745 -29.9461,-0.9395 0,-0.5167 1.30045,-6.265 2.8899,-12.774 4.39785,-18.0099 5.33677,-30.024 4.95171,-63.3604 l -0.34161,-29.5739 -3.02249,-5.9261 c -6.80611,-13.3445 -23.30416,-17.9 -39.26405,-10.8418 -8.76289,3.8753 -8.88768,4.0784 -8.06487,13.1218 0.39001,4.2866 0.74113,22.9027 0.78026,41.369 0.0737,34.7819 0.8904,43.7396 5.55465,60.9249 0.82102,3.025 1.4981,6.0625 1.50463,6.75 0.009,0.9721 -6.57464,1.25 -29.61897,1.25 h -29.63084 l 0.57776,-3.25 c 0.31776,-1.7875 1.83914,-8.425 3.38084,-14.75 l 2.80308,-11.5 v -39.5 c 0,-38.7358 -0.0424,-39.5792 -2.19109,-43.5947 -2.54291,-4.7522 -8.25622,-10.0675 -12.9124,-12.013 -8.67577,-3.625 -21.78976,-2.2821 -31.12186,3.1869 l -4.27465,2.5051 0.006,39.7078 c 0.007,44.9355 1.01324,55.18 7.61063,77.4579 0.4855,1.6394 -1.38598,1.75 -29.61653,1.75 -28.23055,0 -30.10203,-0.1106 -29.61653,-1.75 z m 268.61653,0.977 c 0,-0.4251 1.10108,-5.1137 2.44698,-10.4191 4.7735,-18.8177 5.5545,-27.9828 5.5335,-64.9363 -0.023,-39.9594 -1.2831,-52.3714 -7.57728,-74.6216 l -0.6365,-2.25 h 26.11668 26.11656 l 0.01,56.75 c 0.01,61.0192 0.2933,65.5358 5.4474,85.727 1.4007,5.4874 2.5467,10.0999 2.5467,10.25 0,0.1502 -13.5,0.273 -29.99996,0.273 -16.5,0 -29.99998,-0.3478 -29.99998,-0.773 z m 79.40374,-0.977 c 1.7407,-5.6566 5.674,-23.5493 6.6143,-30.0885 0.7531,-5.2374 0.9835,-31.7084 0.7282,-83.6615 -0.4094,-83.3195 -0.078,-78.3452 -6.6097,-99.314 -1.4052,-4.5114 -1.6341,-6.4134 -0.8017,-6.662 1.8741,-0.5599 46.8948,-5.556 49.9151,-5.5393 l 2.75,0.015 v 94.9006 c 0,90.2192 0.098,95.4605 1.987,106.25 1.0929,6.2422 2.848,14.6119 3.9003,18.5994 l 1.9133,7.25 h -30.4677 c -28.5553,0 -30.4339,-0.1099 -29.9291,-1.75 z m -62.92476,-177.6077 c -21.43248,-9.9804 -21.91398,-39.1952 -0.8106,-49.1787 19.0376,-9.0062 40.33156,4.222 40.33156,25.0548 0,6.4038 -4.6802,16.3731 -9.3635,19.9452 -9.08916,6.9328 -20.76816,8.551 -30.15746,4.1787 z m 17.6149,-14.1909 c 11.69086,-6.0456 7.10366,-24.4514 -6.0939,-24.4514 -6.8091,0 -12.9887,6.086 -12.9963,12.7996 -0.011,9.7989 10.3932,16.1492 19.0902,11.6518 z m -255.86662,-56.8984 c -21.87751,-5.298 -39.60062,-25.3844 -46.66289,-52.8852 -2.44695,-9.5285 -3.86436,-26.3293 -3.15635,-37.4127 2.79746,-43.7928 28.46041,-73.43942 63.59198,-73.46334 17.60471,-0.012 29.92017,4.93124 41.2871,16.57204 l 6.96672,7.1345 -0.50614,-27.49913 c -0.47244,-25.66816 -0.68355,-28.17762 -3.17054,-37.68814 -1.46541,-5.60392 -4.21006,-14.126116 -6.09921,-18.938216 -1.88915,-4.812104 -3.30415,-8.879944 -3.14444,-9.039664 0.15972,-0.15971 13.42502,-1.79139 29.47845,-3.62597 l 29.18806,-3.33558 v 97.0904 c 0,61.3374 0.38422,100.2109 1.04338,105.5642 0.57387,4.6606 2.16617,13.4238 3.53846,19.4738 1.37228,6.05 2.75901,12.2375 3.08161,13.75 l 0.58655,2.75 h -21.43194 -21.43193 l -4.08156,-9.25 c -2.24486,-5.0875 -4.36582,-10.1956 -4.71324,-11.3513 -0.56114,-1.8666 -1.56545,-1.1675 -8.99346,6.2606 -8.72303,8.723 -17.62804,13.9562 -27.69906,16.2778 -6.00117,1.3834 -21.24677,1.1718 -27.67155,-0.3841 z m 48.27274,-24.9818 c 2.75,-1.2748 6.9125,-3.7277 9.25,-5.4508 l 4.25,-3.133 v -46.4048 -46.4048 l -3.25,-2.7488 c -9.56029,-8.0857 -24.94751,-10.8029 -34.93526,-6.1692 -7.16619,3.3247 -12.408,8.8253 -16.45636,17.2686 -4.56397,9.5186 -6.35996,19.7869 -6.35083,36.3095 0.0118,21.4045 3.52989,36.8643 10.73613,47.1791 8.39652,12.0185 23.16106,15.8563 36.75632,9.5542 z m 148,24.7689 c -15.71054,-3.3593 -31.82336,-12.418 -42.15361,-23.699 -7.34346,-8.0193 -14.45557,-21.5334 -17.44139,-33.1411 -2.68282,-10.4299 -3.63389,-30.6827 -1.93531,-41.2121 3.53631,-21.9214 15.03516,-40.5468 31.89355,-51.6598 30.49776,-20.10413 76.25574,-18.84832 104.9777,2.881 12.4297,9.4036 21.8094,23.8716 26.3645,40.6669 3.0091,11.0951 3.3055,37.6645 0.5321,47.703 -8.6139,31.1788 -27.5302,49.8096 -58.61576,57.7311 -7.7553,1.9763 -11.7356,2.3758 -22.99998,2.3083 -7.9897,-0.048 -16.516,-0.7003 -20.6218,-1.5783 z m 31.42948,-14.193 c 8.4972,-5.0779 14.5698,-16.8041 18.7521,-36.2097 2.6132,-12.1255 2.6041,-49.5077 -0.015,-62.4374 -5.7705,-28.4839 -18.8334,-42.1927 -35.73168,-37.4984 -9.2809,2.5782 -17.94464,15.8607 -22.17589,33.9984 -1.96533,8.4245 -2.21856,12.2736 -2.23695,34 -0.0231,27.3227 1.11573,35.9383 6.64612,50.2791 4.06502,10.5409 11.14822,18.3427 18.33212,20.1918 6.3672,1.6389 10.8625,1.0031 16.42948,-2.3238 z m 137.57046,14.4055 c -7.0493,-1.8008 -9.5438,-2.9178 -16.9196,-7.576 -15.732,-9.9357 -26.6742,-28.0568 -31.1604,-51.6042 -2.3472,-12.3203 -2.3444,-35.1281 0.01,-46.3724 7.5554,-36.1485 31.1345,-58.28977 62.0492,-58.26573 16.8728,0.0131 29.4068,5.10383 40.775,16.56083 l 6.75,6.8028 v -21.79897 c 0,-31.23327 -1.8099,-42.5482 -10.3021,-64.54895 -1.7488,-4.53049 -2.2092,-6.76458 -1.4003,-6.79433 0.6629,-0.0244 13.8998,-1.50528 29.4154,-3.29088 l 28.2102,-3.24655 0.3313,101.54088 c 0.3602,110.3903 0.063,104.1255 6.0804,127.9958 l 2.2803,9.0451 -21.5562,-0.04 -21.5562,-0.04 -3.7192,-8.21 c -2.0456,-4.5154 -4.2956,-9.6763 -5,-11.4686 l -1.2808,-3.2586 -3.5703,4.4249 c -8.0387,9.9631 -18.7642,17.0119 -30.5608,20.0845 -6.9558,1.8118 -21.891,1.8431 -28.8689,0.061 z m 49,-25.4402 c 3.3,-1.5362 7.4625,-4.03 9.25,-5.5417 l 3.25,-2.7485 v -46.6611 -46.6611 l -4.7982,-3.2702 c -15.3488,-10.4606 -32.1462,-9.6696 -42.8769,2.0192 -5.043,5.4933 -7.3668,9.8799 -10.47,19.7631 -2.1543,6.8613 -2.3447,9.1615 -2.276,27.4879 0.082,21.9546 1.3615,29.3694 7.0814,41.0509 8.192,16.7303 24.0444,22.382 40.8436,14.5615 z m 148,25.4022 c -24.0157,-5.3091 -43.0392,-18.9905 -53.3185,-38.3457 -11.1284,-20.9542 -13.3627,-50.7426 -5.563,-74.1689 6.552,-19.6792 22.4839,-36.7797 41.3815,-44.4171 25.7155,-10.39282 55.5381,-9.51539 79.5,2.339 19.5969,9.6949 32.2933,25.3135 38.6766,47.5781 1.9956,6.9606 2.2955,10.2737 2.3085,25.5 0.017,20.5924 -1.5289,27.6467 -9.2875,42.3648 -10.3325,19.6007 -27.0583,32.125 -51.0758,38.2453 -7.7522,1.9755 -11.7401,2.3761 -23,2.3104 -7.492,-0.044 -16.3218,-0.6764 -19.6218,-1.4059 z m 30.1703,-13.8304 c 3.6577,-1.9073 9.1903,-8.3948 12.0965,-14.1842 6.097,-12.1461 9.3939,-31.1263 9.3798,-54 -0.025,-40.9059 -10.9303,-67.0341 -28.8613,-69.1508 -13.3408,-1.5748 -23.1709,7.5466 -29.1983,27.0932 -6.9076,22.401 -6.9046,62.086 0.01,85.0324 7.1216,23.6452 21.1006,33.2799 36.5769,25.2094 z"
       id="path1" />
  </g>
</svg>
